PathFileType	4	(X/Y/Z)	C:/Users/beibeiliu/ov580/test_trc\sequence.38_training_dense_left.trc
DataRate	CameraRate	NumFrames	NumMarkers	Units	OrigDataRate	OrigDataStartFrame	OrigNumFrames
120	120	21	19	mm	120	79	312
Frame#	Time	ThumbCMC			ThumbMCP			ThumbIP			ThumbTip			IndexMCP			IndexPIP			IndexTip			MiddleMCP			MiddlePIP			MiddleTip			RingMCP			RingPIP			RingTip			PinkyMCP			PinkyPIP			PinkyTip			BackHand1			BackHand2			BackHand3	
		X0	Y0	Z0	X1	Y1	Z1	X2	Y2	Z2	X3	Y3	Z3	X4	Y4	Z4	X5	Y5	Z5	X6	Y6	Z6	X7	Y7	Z7	X8	Y8	Z8	X9	Y9	Z9	X10	Y10	Z10	X11	Y11	Z11	X12	Y12	Z12	X13	Y13	Z13	X14	Y14	Z14	X15	Y15	Z15	X16	Y16	Z16	X17	Y17	Z17	X18	Y18	Z18	
78	0.65	-155.406	-43.5905	27.1174	-154.933	-56.9404	0.77515	-154.542	-63.0471	-19.9096	-155.724	-64.9726	-41.0459	-155.416	-43.7663	-41.8611	-180.071	-53.6677	-46.6461	-190.427	-51.307	-18.6593	-164.062	-25.0448	-46.1116	-194.589	-37.91	-42.9821	-195.118	-37.5802	-13.106	-172.758	-12.0823	-42.1022	-200.325	-23.2241	-35.164	-198.155	-25.3526	-9.45037	-178.603	3.39272	-34.555	-199.887	-13.7436	-29.7552	-195.128	-19.6153	-6.84348	-149.587	3.434	-0.144383	-150.84	8.06272	23.213	-140.409	-18.5873	14.7871	
79	0.658333	-159.003	-42.814	24.7679	-161.566	-59.6783	2.25628	-161.063	-68.9326	-20.3609	-163.629	-70.8329	-41.4479	-155.999	-43.4093	-40.0675	-185.034	-51.1956	-43.4954	-192.397	-51.4648	-17.779	-166.123	-27.4073	-47.0114	-192.535	-38.4069	-46.562	-197.024	-33.8357	-14.7467	-175.962	-15.6593	-45.2725	-199.903	-22.9012	-36.0457	-198.045	-26.3019	-9.71401	-179.608	2.31444	-36.6642	-200.677	-10.3373	-33.3405	-196.733	-18.4147	-9.01434	-150.839	4.52314	-0.557897	-148.682	6.53871	23.0186	-140.088	-18.6827	14.584	
80	0.666667	-161.932	-42.0483	24.6595	-167.595	-62.6364	5.79233	-166.758	-66.9222	-19.1648	-171.716	-71.039	-38.4457	-157.909	-46.8122	-42.635	-185.928	-51.3844	-43.6488	-191.263	-50.8519	-14.7585	-165.838	-29.0527	-46.8184	-195.279	-36.5454	-45.7957	-197.224	-35.2066	-15.4648	-172.934	-15.9798	-42.4777	-196.483	-25.778	-38.4182	-195.547	-26.6335	-8.18462	-182.163	3.40123	-38.8886	-197.126	-12.2143	-33.8413	-197.829	-17.692	-8.49745	-147.969	4.35777	-5.51947	-150.572	3.856	24.6601	-142.062	-20.2189	16.5135	
81	0.675	-164.181	-46.7681	26.7412	-171.319	-62.561	3.28373	-171.837	-69.7924	-19.2083	-177.686	-72.2398	-38.8644	-156.824	-48.3724	-39.3242	-183.382	-50.5627	-46.7377	-192.575	-45.0266	-17.2148	-164.463	-33.3111	-46.4525	-193.444	-39.8676	-47.007	-198.28	-30.9058	-15.4079	-172.652	-13.8941	-42.7498	-197.824	-21.8125	-39.5739	-195.789	-25.2145	-7.74332	-178.644	-1.18088	-38.2647	-197.197	-12.2477	-33.9985	-198.234	-15.0885	-6.81547	-148.461	3.58621	-2.43014	-151.62	7.32851	23.0388	-143.634	-21.3606	15.9024	
82	0.683333	-165.347	-45.9436	25.5428	-175.141	-59.8084	5.75693	-176.951	-68.1946	-20.6963	-180.665	-68.6668	-41.1072	-156.553	-50.6126	-40.3876	-183.635	-53.1795	-47.0359	-194.116	-43.6718	-20.3257	-161.952	-31.1282	-45.0697	-194.625	-36.9231	-46.3169	-197.363	-30.2693	-15.4688	-172.003	-14.5369	-44.3819	-197.638	-20.0693	-39.6836	-196.364	-25.3091	-10.9092	-174.271	2.89614	-36.1195	-197.638	-8.65245	-35.7494	-198.414	-14.0148	-10.996	-146.057	-1.60955	-3.83868	-148.995	3.48789	24.6918	-142.846	-20.59	18.1534	
83	0.691667	-168.358	-43.3482	26.9989	-178.789	-62.5038	4.10513	-180.689	-66.6879	-19.322	-186.811	-69.4057	-42.0313	-157.12	-50.5641	-39.0862	-184.907	-51.1514	-47.3903	-195.617	-44.8213	-20.4625	-164.788	-29.7366	-49.4235	-193.849	-32.5833	-48.6466	-198.216	-28.6575	-18.6925	-170.63	-13.9404	-43.9039	-197.329	-20.0456	-40.879	-198.342	-20.6892	-10.7004	-175.434	4.90975	-37.4355	-197.991	-5.01853	-36.3347	-196.724	-15.947	-10.8776	-147.71	1.28868	-3.98421	-150.869	6.58156	23.97	-143.246	-22.7212	16.3728	
84	0.7	-167.905	-46.4193	23.2706	-181.128	-62.4582	1.63537	-185.867	-71.7339	-19.7505	-192.971	-69.7045	-40.9057	-156.833	-50.2276	-39.6506	-186.951	-49.4568	-47.3113	-197.198	-46.833	-22.5507	-165.697	-33.51	-48.6455	-193.594	-33.0867	-51.3446	-198.607	-31.6009	-17.7989	-172.422	-12.8571	-45.8682	-198.964	-22.4156	-38.8314	-198.002	-22.5398	-11.0488	-175.648	0.950143	-39.6485	-198.536	-5.59965	-36.5403	-198.273	-17.004	-12.9502	-146.074	1.89727	-4.35587	-151.657	4.57461	26.1708	-143.884	-24.3734	16.4697	
85	0.708333	-170.993	-45.9109	25.6269	-183.347	-59.4633	2.00795	-189.563	-65.9757	-18.3252	-197.433	-67.3535	-41.1158	-158.305	-48.9495	-41.5437	-181.685	-50.8293	-52.154	-198.376	-45.9444	-26.8167	-164.261	-32.9565	-47.5302	-195.604	-35.9351	-49.2125	-200.042	-31.9512	-20.3106	-173.318	-11.5848	-46.8021	-198.496	-23.2851	-41.4745	-200.601	-19.7742	-11.8775	-178.544	4.22871	-42.0549	-197.983	-6.80078	-37.8094	-200.524	-14.3223	-9.36983	-148.961	2.03342	-2.20562	-150.574	2.57445	22.8076	-146.46	-24.2275	19.2291	
86	0.716667	-171.833	-44.0093	26.8038	-185.195	-62.1993	4.073	-192.553	-69.5707	-15.5354	-200.244	-60.3218	-43.276	-158.144	-48.8381	-39.594	-183.264	-56.1413	-54.3253	-202.919	-49.2266	-30.5906	-165.711	-30.2208	-46.9713	-194.3	-36.0806	-52.4233	-201.35	-30.1867	-17.3945	-173.947	-15.4456	-45.5552	-201.777	-21.4709	-40.671	-204.104	-20.9946	-16.2587	-176.821	0.336326	-39.6397	-198.604	-11.3011	-36.3649	-202.943	-13.1165	-12.5821	-151.499	0.815234	-1.01385	-150.211	1.23187	22.377	-146.284	-26.0265	18.1601	
87	0.725	-172.997	-45.5402	28.1563	-183.055	-64.6899	3.4955	-186.167	-61.6075	-19.6685	-194.977	-51.4933	-42.5881	-160.584	-50.991	-41.5063	-183.441	-54.9813	-55.9515	-208.783	-52.7895	-37.8627	-168.035	-36.8698	-48.381	-197.091	-40.7089	-52.4679	-205.593	-34.119	-23.1779	-174.676	-14.5226	-46.7204	-200.724	-24.2448	-44.1479	-204.17	-22.7914	-15.3681	-177.584	-1.07427	-39.2212	-202.33	-9.34451	-37.3103	-204.614	-12.6414	-13.8149	-150.612	-0.265731	-2.34722	-153.078	3.82355	25.6077	-147.878	-25.3568	17.7744	
88	0.733333	-172.641	-45.9593	26.1609	-181.073	-61.8828	2.9559	-183.635	-62.5546	-25.5994	-189.584	-42.1248	-42.4392	-161.783	-50.2086	-38.6976	-188.728	-57.2943	-54.3328	-209.751	-51.9888	-38.8627	-170.424	-34.5743	-50.6788	-199.561	-38.4557	-52.5501	-209.033	-35.8279	-25.1867	-175.345	-14.0201	-45.2897	-200.452	-24.329	-45.5242	-206.629	-22.223	-18.2407	-178.097	-2.03834	-39.9256	-200.245	-10.5486	-40.3896	-208.136	-11.9258	-16.5719	-151.645	-2.60506	-0.809247	-152.927	4.04112	23.0703	-149.152	-27.5608	13.7383	
89	0.741667	-173.095	-44.2296	25.1953	-180.292	-60.2868	1.76373	-182.645	-57.5732	-24.1101	-189.364	-45.6887	-42.0751	-163.693	-49.972	-39.8321	-189.783	-55.5593	-53.1459	-211.565	-55.4058	-32.8258	-170.682	-34.8702	-50.7417	-199.585	-41.6002	-53.1981	-210.551	-34.5133	-24.8545	-176.312	-17.6692	-46.6243	-203.34	-23.4756	-46.1066	-206.46	-24.5995	-18.4235	-178.867	2.01968	-39.6667	-202.169	-10.4775	-40.0082	-205.223	-15.3828	-14.3096	-153.773	0.53	-3.10937	-153.644	6.12358	22.6839	-148.431	-26.4763	13.9765	
90	0.75	-174.037	-46.0615	28.212	-181.422	-58.7034	1.56536	-184.777	-60.0947	-26.8423	-189.221	-41.3684	-43.1566	-163.244	-48.1078	-39.3652	-187.107	-54.5713	-54.8917	-211.296	-52.4619	-32.8614	-169.17	-34.4569	-46.4724	-197.561	-39.9599	-55.7433	-210.474	-34.1114	-23.8294	-175.266	-17.6601	-44.708	-204.035	-24.5444	-45.6541	-207.08	-20.6834	-14.4058	-182.724	0.478494	-42.753	-201.677	-11.8186	-41.1048	-206.44	-15.4366	-16.8967	-154.763	-4.2596	-2.25069	-155.65	5.64973	19.7757	-148.213	-27.1258	15.9793	
91	0.758333	-172.801	-46.4177	27.2232	-181.968	-63.1542	1.8425	-186.487	-61.9802	-23.2492	-192.016	-45.4745	-40.9262	-165.501	-52.2014	-43.2452	-188.386	-54.2108	-54.6702	-211.112	-53.9053	-35.5396	-169.012	-36.4771	-46.2913	-201.773	-41.5363	-52.6497	-210.876	-33.9718	-23.5888	-179.509	-18.6677	-49.7397	-204.737	-22.2968	-46.3035	-208.727	-20.1243	-17.9125	-180.533	0.273809	-38.726	-204.952	-9.52602	-39.5191	-208.809	-12.8012	-12.8156	-154.112	-3.3372	-4.27112	-154.116	3.71795	19.344	-150.572	-25.1236	12.446	
92	0.766667	-173.366	-45.0141	26.8459	-183.243	-59.9749	4.27325	-187.812	-62.6547	-23.7483	-195.259	-45.066	-39.409	-163.813	-48.3269	-40.4804	-188.838	-54.9309	-55.9686	-209.404	-52.3872	-39.011	-170.911	-31.6067	-49.5639	-200.551	-37.5351	-54.0002	-209.246	-35.031	-21.6947	-180.328	-14.4626	-49.0018	-206.866	-22.6459	-44.4406	-209.362	-23.8977	-18.6262	-183.933	2.00787	-41.8583	-205.734	-10.3875	-40.107	-206.375	-15.4281	-12.5519	-156.749	1.51897	-5.13135	-156.458	4.5549	23.4041	-152.364	-19.6479	14.529	
93	0.775	-174.342	-43.352	24.6828	-188.216	-60.3332	0.97629	-196.641	-63.7974	-17.9939	-207.885	-56.4858	-40.803	-160.396	-51.183	-39.6687	-185.379	-57.0232	-55.2714	-204.896	-51.5227	-29.8968	-172.143	-34.5256	-51.9957	-199.274	-38.9958	-55.4702	-208.118	-31.6752	-24.1676	-182.41	-13.9297	-50.7598	-204.916	-22.2792	-46.2059	-207.057	-24.9991	-16.45	-183.529	-0.275146	-41.7056	-205.75	-11.9149	-39.7153	-205.735	-15.3564	-12.618	-154.747	-1.32577	-4.864	-157.557	2.96952	20.9359	-150.28	-21.0849	13.7196	
94	0.783333	-174.248	-40.3496	23.9205	-191.791	-62.0018	2.88998	-200.206	-66.0265	-22.0003	-209.302	-57.8551	-39.4026	-163.523	-52.1614	-42.7865	-188.048	-53.1103	-53.4594	-202.191	-49.5442	-28.3092	-171.152	-35.106	-51.9494	-200.354	-40.6037	-53.709	-207.23	-31.1148	-21.9507	-180.962	-14.3732	-49.7461	-203.921	-24.2222	-46.5129	-208.932	-21.628	-15.6052	-184.58	0.196744	-41.6946	-207.043	-6.37666	-41.4276	-209.17	-15.4436	-13.4347	-157.576	-1.02418	-3.87242	-156.783	6.19444	20.7114	-151.659	-18.5967	12.3977	
95	0.791667	-174.635	-40.7337	22.9145	-191.718	-59.8295	3.96432	-197.686	-62.5426	-22.055	-210.538	-61.754	-40.5967	-164.469	-49.2401	-44.8846	-191.155	-50.8244	-51.379	-200.985	-44.2678	-22.8884	-171.799	-29.1486	-52.616	-197.879	-37.7688	-56.7901	-207.351	-30.209	-23.2862	-182.276	-11.1194	-49.4652	-204.469	-20.3382	-47.1155	-210.074	-21.6126	-19.5064	-185.029	6.86128	-40.4855	-209.096	-8.71367	-37.5915	-206.774	-16.9045	-14.312	-156.229	2.97507	-6.89461	-159.731	5.67112	21.7473	-149.711	-22.6741	13.2605	
96	0.8	-174.539	-41.4936	21.2149	-188.704	-57.2561	-0.2893	-197.628	-66.9589	-24.4578	-206.624	-60.767	-43.2795	-163.864	-46.7674	-42.6451	-190.852	-54.3873	-50.6001	-201.77	-45.2154	-21.8264	-171.452	-26.1552	-49.0108	-200.764	-33.7453	-54.8247	-209.236	-31.5725	-24.9682	-181.584	-12.9117	-48.7893	-206.947	-22.7042	-44.834	-210.068	-21.8982	-17.9338	-187.924	3.98881	-42.372	-208.072	-9.24683	-38.3171	-209.971	-14.2123	-14.7415	-158.777	5.1407	-5.91079	-158.6	10.0573	19.8295	-152.905	-21.0735	15.4948	
97	0.808333	-174.191	-39.3203	21.4834	-187.289	-57.5392	0.740338	-193.513	-63.1986	-20.3791	-203.211	-63.4036	-45.9663	-161.263	-44.689	-41.2051	-191.332	-52.6881	-50.3034	-200.865	-46.7303	-21.2628	-172.988	-22.5128	-49.9675	-201.721	-34.6843	-53.3451	-208.219	-34.1715	-22.8995	-183.185	-10.2965	-48.2079	-208.775	-18.9742	-44.7988	-211.584	-21.5127	-16.7183	-189.57	6.39642	-41.4493	-209.175	-10.267	-38.5399	-210.265	-16.7129	-13.2437	-158.474	4.44754	-4.75427	-163.726	11.7652	24.0375	-153.011	-16.3566	11.1967	
98	0.816667	-171.463	-40.8243	22.6652	-184.19	-59.9896	1.69015	-188.161	-65.8325	-24.4737	-196.398	-62.6231	-44.0092	-162.307	-39.1142	-42.4757	-189.899	-49.564	-50.3538	-201.26	-46.0242	-24.1622	-173.784	-21.4751	-50.1814	-198.714	-33.9117	-55.3643	-207.294	-32.9695	-20.5259	-185.969	-6.97853	-47.6993	-208.931	-17.5	-44.815	-211.632	-23.4504	-17.9382	-192.097	7.56218	-39.8626	-209.646	-9.5618	-37.67	-210.571	-17.3646	-11.5801	-162.054	8.51879	-5.48417	-166.159	14.4824	24.024	-154.425	-15.1849	15.8698	
